<?xml version="1.0" encoding="iso-8859-1"?>
<!-- Generator: Adobe Illustrator 18.0.0, SVG Export Plug-In . SVG Version: 6.00 Build 0)  -->
<!DOCTYPE svg PUBLIC "-//W3C//DTD SVG 1.1//EN" "http://www.w3.org/Graphics/SVG/1.1/DTD/svg11.dtd">
<svg version="1.1" id="Capa_1" xmlns="http://www.w3.org/2000/svg" xmlns:xlink="http://www.w3.org/1999/xlink" x="0px" y="0px"
	 viewBox="0 0 480.228 480.228" style="enable-background:new 0 0 480.228 480.228;" xml:space="preserve">
<g>
	<circle cx="286.371" cy="172.898" r="9.741"/>
	<circle cx="198.701" cy="172.898" r="9.741"/>
	<path d="M479.36,336.141c-24.631-38.458-61.184-60.689-87.51-72.567c-21.964-9.91-40.329-14.407-47.995-16.015
		c-7.856-21.902-10.74-45.674-8.156-68.926c0.451-3.959,0.647-8.067,0.584-12.207c-0.307-20.24-7.117-39.847-19.308-56.024
		c0.812-0.567,1.481-1.328,1.892-2.251c0.626-1.406,0.634-3.01,0.022-4.422l-10.771-24.87l44.522-1.874v9.643
		c-7.709,2.359-13.333,9.538-13.333,18.009c0,10.385,8.448,18.833,18.833,18.833s18.834-8.449,18.834-18.833
		c0-8.472-5.625-15.65-13.334-18.009V71.248h-0.017c0-1.874-0.945-3.661-2.594-4.68l-80.965-50l-0.009,0.014
		c-1.087-0.671-2.395-0.976-3.721-0.77l-73.333,11.333c-1.762,0.272-3.282,1.381-4.079,2.976l-36.667,73.333
		c-0.712,1.423-0.772,3.086-0.165,4.557c0.393,0.953,1.043,1.761,1.861,2.354c-12.449,16.53-19.239,36.677-19.239,57.554
		c0,3.266,0.168,6.566,0.499,9.805c2.43,23.945-0.403,47.632-8.212,69.703c-7.249,1.485-26.032,5.952-48.624,16.145
		c-26.327,11.878-62.88,34.11-87.51,72.567c-1.126,1.759-1.159,4.005-0.084,5.796c0.999,1.665,2.794,2.67,4.715,2.67
		c0.146,0,0.293-0.006,0.439-0.018c47.091-3.767,88.104-12.489,104.336-16.265c-0.067,1.517-0.115,3.034-0.129,4.554
		c-0.328,35.71,14.053,69.774,39.694,94.655c-10.076,6.834-16.709,18.379-16.709,31.444c0,3.038,2.463,5.5,5.5,5.5h203.754
		c3.037,0,5.5-2.462,5.5-5.5c0-13.005-6.575-24.5-16.572-31.347c25.232-24.492,39.563-58.14,39.563-93.512
		c0-1.874-0.056-3.744-0.136-5.613c16.744,3.868,57.206,12.375,103.551,16.083c0.147,0.012,0.294,0.018,0.439,0.018
		c1.921,0,3.716-1.005,4.715-2.67C480.519,340.146,480.486,337.9,479.36,336.141z M365.975,104.637c0,4.319-3.515,7.833-7.834,7.833
		s-7.833-3.514-7.833-7.833s3.514-7.833,7.833-7.833S365.975,100.317,365.975,104.637z M339.997,66.507l-36.56,1.539L289.18,35.125
		L339.997,66.507z M207.492,37.583l66.326-10.25l22.791,52.626c-18.327,4.729-37.165,7.132-56.093,7.132
		c-18.369,0-36.644-2.257-54.425-6.704L207.492,37.583z M181.056,90.455c19.397,5.065,39.375,7.635,59.46,7.635
		c20.433,0,40.766-2.665,60.517-7.916l5.353,12.36c-42.6,13.049-88.801,13.083-131.42,0.101L181.056,90.455z M174.994,114.113
		c21.302,6.151,43.409,9.23,65.516,9.23c22.073,0,44.145-3.071,65.417-9.202c5.553,6.747,9.984,14.252,13.208,22.222
		c-8.94-8.01-20.738-12.893-33.658-12.893c-19.615,0-36.641,11.248-45,27.626c-8.359-16.378-25.385-27.626-45-27.626
		c-12.925,0-24.726,4.886-33.667,12.901C165.017,128.373,169.442,120.861,174.994,114.113z M155.975,173.97
		c0-21.78,17.72-39.5,39.5-39.5c21.687,0,39.341,17.569,39.493,39.221c-0.4,9.148-7.947,16.473-17.191,16.473
		c-3.037,0-5.5,2.462-5.5,5.5s2.463,5.5,5.5,5.5c0.786,0,1.562-0.026,2.333-0.065c0.315-0.015,0.624-0.033,0.934-0.052
		c0.11-0.008,0.22-0.016,0.331-0.025c2.314-0.161,4.493-0.434,6.481-0.695c2.287-0.3,5.666-0.742,6.876-0.45
		c0.104,0.309,0.275,1.036,0.275,2.458c0,3.038,2.463,5.5,5.5,5.5s5.5-2.462,5.5-5.5c0-1.422,0.172-2.149,0.275-2.458
		c1.209-0.293,4.589,0.15,6.876,0.45c1.988,0.261,4.167,0.534,6.481,0.695c0.11,0.009,0.22,0.017,0.331,0.025
		c0.31,0.02,0.619,0.038,0.934,0.052c0.771,0.039,1.546,0.065,2.333,0.065c3.037,0,5.5-2.462,5.5-5.5s-2.463-5.5-5.5-5.5
		c-9.5,0-17.229-7.729-17.229-17.229c0-0.022-0.003-0.043-0.003-0.065c0.587-21.271,18.061-38.398,39.472-38.398
		c21.78,0,39.5,17.72,39.5,39.5h0.101c-0.082,1.154-0.178,2.302-0.308,3.433c-1.093,9.837-1.268,19.76-0.569,29.612
		c-47.256,43.48-120.413,43.416-167.592-0.192c0.719-9.969,0.58-20.069-0.45-30.212c-0.089-0.875-0.139-1.759-0.202-2.641H155.975z
		 M16.716,332.582c22.729-30.334,53.285-48.612,75.889-58.848c16.105-7.293,30.379-11.567,39.384-13.847
		c-1.725,3.805-3.602,7.552-5.636,11.231c-7.804,14.113-12.906,29.659-15.054,45.663C99.792,319.557,62.096,328.101,16.716,332.582z
		 M144.693,453.479c2.547-12.243,13.42-21.471,26.407-21.471h16.235c12.987,0,23.86,9.228,26.407,21.471H144.693z M336.32,453.479
		h-69.05c2.547-12.243,13.42-21.471,26.407-21.471h16.235C322.9,432.008,333.773,441.236,336.32,453.479z M320.648,422.563
		c-3.406-1.006-7.007-1.555-10.735-1.555h-16.235c-18.705,0-34.282,13.598-37.394,31.425c-5.754,0.762-11.618,1.113-17.483,1.029
		c-4.708-0.062-9.423-0.415-14.072-1.036c-3.115-17.823-18.691-31.417-37.393-31.417H171.1c-3.66,0-7.196,0.531-10.547,1.501
		c-25.395-23-39.722-55.453-39.408-89.528c0.184-19.772,5.313-39.323,14.832-56.539c9.731-17.593,16.157-36.614,19.145-56.328
		c24.73,20.305,55.055,30.466,85.385,30.466c30.243,0,60.481-10.103,85.173-30.292c2.963,19.461,9.363,38.36,18.961,55.446
		c9.967,17.734,15.234,37.924,15.234,58.386C359.875,367.885,345.616,399.94,320.648,422.563z M369.736,316.974
		c-2.169-16.368-7.418-32.237-15.506-46.628c-1.883-3.351-3.631-6.778-5.248-10.268c9.035,2.324,22.966,6.559,38.642,13.657
		c22.604,10.235,53.158,28.514,75.888,58.847C419.174,328.203,382.124,319.934,369.736,316.974z"/>
</g>
<g>
</g>
<g>
</g>
<g>
</g>
<g>
</g>
<g>
</g>
<g>
</g>
<g>
</g>
<g>
</g>
<g>
</g>
<g>
</g>
<g>
</g>
<g>
</g>
<g>
</g>
<g>
</g>
<g>
</g>
</svg>
