<?xml version="1.0" encoding="iso-8859-1"?>
<!-- Generator: Adobe Illustrator 17.1.0, SVG Export Plug-In . SVG Version: 6.00 Build 0)  -->
<!DOCTYPE svg PUBLIC "-//W3C//DTD SVG 1.1//EN" "http://www.w3.org/Graphics/SVG/1.1/DTD/svg11.dtd">
<svg version="1.1" id="Capa_1" xmlns="http://www.w3.org/2000/svg" xmlns:xlink="http://www.w3.org/1999/xlink" x="0px" y="0px"
	 viewBox="0 0 511 511" style="enable-background:new 0 0 511 511;" xml:space="preserve">
<g>
	<path d="M457.723,144.822C461.197,136.88,463,128.301,463,119.5c0-35.014-28.486-63.5-63.5-63.5c-8.529,0-16.829,1.69-24.55,4.956
		C373.609,27.118,345.661,0,311.5,0c-24.209,0-45.29,13.622-56,33.599C244.79,13.622,223.709,0,199.5,0
		c-34.161,0-62.109,27.118-63.45,60.956C128.329,57.69,120.029,56,111.5,56C76.486,56,48,84.486,48,119.5
		c0,8.801,1.803,17.38,5.277,25.322C23.106,149.726,0,175.965,0,207.5c0,30.528,22.18,56.572,53.938,63.335
		c0.125,0.027,0.251,0.05,0.377,0.07l66.067,10.571c2.925,39.69,23.18,76.195,55.618,99.731V399.5c0,14.785,10.241,27.216,24,30.591
		v38.303l-29.803,29.803c-2.929,2.929-2.929,7.678,0,10.606c1.464,1.464,3.384,2.197,5.303,2.197s3.839-0.732,5.303-2.197
		L200,489.606V503.5c0,4.142,3.358,7.5,7.5,7.5s7.5-3.358,7.5-7.5v-13.894l19.197,19.197c1.464,1.464,3.384,2.197,5.303,2.197
		s3.839-0.732,5.303-2.197c2.929-2.929,2.929-7.678,0-10.606L215,468.394V430.09c11.73-2.877,20.905-12.335,23.354-24.226
		c5.794,0.755,11.534,1.136,17.146,1.136s11.352-0.381,17.146-1.136c2.449,11.891,11.624,21.349,23.354,24.226v38.303
		l-29.803,29.803c-2.929,2.929-2.929,7.678,0,10.606c1.464,1.464,3.384,2.197,5.303,2.197s3.839-0.732,5.303-2.197L296,489.606
		V503.5c0,4.142,3.358,7.5,7.5,7.5s7.5-3.358,7.5-7.5v-13.894l19.197,19.197c1.464,1.464,3.384,2.197,5.303,2.197
		s3.839-0.732,5.303-2.197c2.929-2.929,2.929-7.678,0-10.606L311,468.394v-38.303c13.759-3.374,24-15.806,24-30.591v-18.292
		c32.517-23.593,52.792-60.219,55.64-100.021c0.281,0.032,0.564,0.055,0.851,0.055c0.394,0,0.793-0.031,1.194-0.095l64-10.24
		c0.05-0.008,0.099-0.017,0.149-0.025C488.726,265.117,511,239.054,511,207.5C511,175.965,487.894,149.726,457.723,144.822z
		 M311.5,15c26.743,0,48.5,21.757,48.5,48.5c0,2.442-0.2,4.921-0.584,7.397l-33.669,67.339C319.961,107.533,294.5,83.694,263,80.395
		V63.5C263,36.757,284.757,15,311.5,15z M269.13,206.328l9.485-28.456c0.762-2.287,0.379-4.801-1.031-6.757
		c-1.41-1.956-3.674-3.115-6.084-3.115h-32c-2.411,0-4.675,1.159-6.084,3.115c-1.41,1.956-1.793,4.47-1.031,6.757l9.485,28.456
		C217.28,200.213,199,177.955,199,151.5c0-31.154,25.346-56.5,56.5-56.5s56.5,25.346,56.5,56.5
		C312,177.955,293.72,200.213,269.13,206.328z M249.906,183h11.188l-5.594,16.783L249.906,183z M199.5,15
		c26.743,0,48.5,21.757,48.5,48.5v16.895c-31.5,3.299-56.961,27.137-62.747,57.841l-33.669-67.339C151.2,68.421,151,65.942,151,63.5
		C151,36.757,172.757,15,199.5,15z M15,207.5c0-25.932,20.458-47.174,46.082-48.439L115,199.5c1.349,1.012,2.928,1.5,4.494,1.5
		c2.28,0,4.533-1.036,6.006-3c2.485-3.313,1.813-8.015-1.5-10.5l-51.31-38.483c-0.221-0.6-0.512-1.179-0.889-1.717
		c-5.757-8.203-8.8-17.816-8.8-27.8C63,92.757,84.757,71,111.5,71c9.986,0,19.564,3.053,27.776,8.823l39.871,79.742
		c-35.275,24.129-57.356,63.849-59.034,106.678L56.88,256.125C32.211,250.792,15,230.822,15,207.5z M187.096,172.305
		c5.796,19.02,19.321,34.695,36.902,43.362c-0.036,29.938-9.837,57.505-29.134,81.935c-13.779,17.445-30.028,29.965-42.139,36.778
		C141.296,315.714,135,294.027,135,271.5C135,231.851,154.746,194.682,187.096,172.305z M358.275,334.378
		c-4.537-2.557-10.938-6.629-18.403-12.711c-3.211-2.617-7.936-2.134-10.552,1.077s-2.134,7.936,1.077,10.552
		c6.333,5.16,12.961,9.769,19.221,13.407c-7.42,9.281-16.257,17.539-26.343,24.415c-2.049,1.397-3.275,3.717-3.275,6.197V399.5
		c0,9.098-7.402,16.5-16.5,16.5s-16.5-7.402-16.5-16.5v-2.326c0-2.234-0.996-4.352-2.717-5.777
		c-1.721-1.425-3.989-2.008-6.183-1.591C270.434,391.262,262.83,392,255.5,392s-14.934-0.738-22.601-2.194
		c-2.196-0.417-4.461,0.166-6.183,1.591c-1.721,1.425-2.717,3.542-2.717,5.777v2.326c0,9.098-7.402,16.5-16.5,16.5
		s-16.5-7.402-16.5-16.5v-22.185c0-2.48-1.226-4.8-3.275-6.197c-10.083-6.874-18.917-15.128-26.335-24.405
		c29.294-16.94,75.044-59.928,77.498-125.682c2.736,0.654,5.53,1.152,8.377,1.48l1.12,3.361c1.021,3.063,3.887,5.128,7.115,5.128
		s6.094-2.066,7.115-5.128l1.12-3.361c2.844-0.328,5.636-0.825,8.37-1.479c0.469,12.536,2.531,24.841,6.152,36.654
		c0.99,3.228,3.959,5.304,7.168,5.304c0.728,0,1.468-0.107,2.201-0.332c3.96-1.214,6.187-5.408,4.972-9.369
		c-3.699-12.069-5.58-24.727-5.596-37.625c17.58-8.667,31.104-24.342,36.901-43.361C356.253,194.681,376,231.854,376,271.5
		C376,294.027,369.704,315.713,358.275,334.378z M454.236,256.107l-63.349,10.136c-1.678-42.827-23.76-82.55-59.034-106.678
		l39.871-79.742C379.936,74.053,389.514,71,399.5,71c26.743,0,48.5,21.757,48.5,48.5c0,9.984-3.043,19.597-8.8,27.8
		c-0.378,0.538-0.668,1.117-0.889,1.717L387,187.5c-3.313,2.485-3.985,7.187-1.5,10.5c1.474,1.965,3.726,3,6.006,3
		c1.566,0,3.145-0.489,4.494-1.5l53.918-40.439C475.542,160.326,496,181.568,496,207.5C496,231.653,478.831,251.631,454.236,256.107
		z"/>
	<path d="M231.5,144c-1.97,0-3.91,0.8-5.3,2.2c-1.4,1.39-2.2,3.33-2.2,5.3c0,1.97,0.8,3.91,2.2,5.3c1.39,1.4,3.33,2.2,5.3,2.2
		c1.97,0,3.91-0.8,5.3-2.2c1.4-1.39,2.2-3.33,2.2-5.3c0-1.98-0.8-3.91-2.2-5.3C235.41,144.8,233.47,144,231.5,144z"/>
	<path d="M279.5,144c-1.97,0-3.91,0.8-5.3,2.2c-1.4,1.39-2.2,3.33-2.2,5.3c0,1.97,0.8,3.91,2.2,5.3c1.39,1.4,3.33,2.2,5.3,2.2
		c1.97,0,3.91-0.8,5.3-2.2c1.4-1.39,2.2-3.33,2.2-5.3c0-1.97-0.8-3.91-2.2-5.3C283.41,144.8,281.47,144,279.5,144z"/>
	<path d="M306.351,283.604c-2.166-3.531-6.784-4.638-10.314-2.472c-3.531,2.166-4.638,6.784-2.472,10.314
		c3.52,5.739,7.496,11.367,11.817,16.728c1.482,1.838,3.653,2.793,5.843,2.793c1.652,0,3.316-0.544,4.703-1.662
		c3.225-2.6,3.731-7.321,1.132-10.546C313.14,293.897,309.537,288.798,306.351,283.604z"/>
</g>
<g>
</g>
<g>
</g>
<g>
</g>
<g>
</g>
<g>
</g>
<g>
</g>
<g>
</g>
<g>
</g>
<g>
</g>
<g>
</g>
<g>
</g>
<g>
</g>
<g>
</g>
<g>
</g>
<g>
</g>
</svg>
