<?xml version="1.0" encoding="utf-8"?>
<!-- Generated by IcoMoon.io -->
<!DOCTYPE svg PUBLIC "-//W3C//DTD SVG 1.1//EN" "http://www.w3.org/Graphics/SVG/1.1/DTD/svg11.dtd">
<svg version="1.1" xmlns="http://www.w3.org/2000/svg" xmlns:xlink="http://www.w3.org/1999/xlink" width="32" height="96" viewBox="0 0 32 96">
<svg id="icon-animal1" width="32" height="32" viewBox="0 0 32 32" x="0" y="0">
<path fill="#000000" d="M27.552 15.366c0-2.108-1.15-4.103-3.087-5.376v-7.775c0-1.221-0.994-2.215-2.215-2.215s-2.215 0.994-2.215 2.215v6.407c-0.099-0.003-0.196-0.005-0.293-0.005-1.174 0-2.33 0.228-3.38 0.663v-7.066c0-1.221-0.994-2.215-2.215-2.215s-2.215 0.994-2.215 2.215v12.865c-1.562 0.528-2.961 1.529-3.968 2.848-1.119 1.465-1.71 3.216-1.71 5.064v2.55c-1.025 0.181-1.806 1.078-1.806 2.154 0 1.105 0.824 2.021 1.89 2.167 0.305 1.226 1.415 2.137 2.734 2.137 0 0 7.768 0 7.781 0 0.572 0 1.082-0.27 1.411-0.688 0.329 0.419 0.839 0.689 1.411 0.689 0.479 0 0.929-0.187 1.268-0.525s0.525-0.789 0.525-1.268v-8.258c3.479-0.68 6.085-3.373 6.085-6.583zM5.212 27.695c0-0.653 0.442-1.203 1.042-1.371v2.741c-0.6-0.168-1.042-0.717-1.042-1.37zM19.742 21.351c-0.899 0-1.775-0.142-2.603-0.422-0.2-0.068-0.417 0.040-0.484 0.24s0.040 0.417 0.24 0.484c0.907 0.307 1.865 0.462 2.847 0.462 0.325 0 0.646-0.018 0.961-0.051v8.143c0 0.275-0.107 0.533-0.301 0.727s-0.453 0.301-0.727 0.301c-0.566 0-1.027-0.459-1.029-1.025 0-0.001 0-0.003 0-0.004v-4.854c0-0.211-0.171-0.382-0.382-0.382s-0.382 0.171-0.382 0.382v4.854c0 0 0 0 0 0h-0c0 0.001 0 0.003 0 0.004-0.002 0.565-0.463 1.025-1.029 1.025-0.567 0-1.029-0.462-1.029-1.029v-4.854c0-0.211-0.171-0.382-0.382-0.382s-0.382 0.171-0.382 0.382v4.854c0 0.383 0.121 0.737 0.326 1.029h-0.96c0.205-0.291 0.326-0.646 0.326-1.029 0-0.479-0.187-0.929-0.525-1.268s-0.789-0.525-1.268-0.525h-0.069v-1.432c0-1.981-1.611-3.592-3.591-3.592-0.211 0-0.382 0.171-0.382 0.382s0.171 0.382 0.382 0.382c1.559 0 2.827 1.268 2.827 2.828v1.432h-0.69c-0.211 0-0.382 0.171-0.382 0.382s0.171 0.382 0.382 0.382h1.524c0.275 0 0.533 0.107 0.728 0.301s0.301 0.453 0.301 0.727c0 0.567-0.462 1.029-1.029 1.029h-3.886c-0 0-0 0-0 0-1.132-0-2.053-0.921-2.053-2.053v-6.191c0-1.679 0.537-3.269 1.553-4.6 0.868-1.136 2.055-2.012 3.385-2.509 0.054 0.615 0.202 1.217 0.446 1.796 0.082 0.195 0.306 0.286 0.501 0.204s0.286-0.306 0.204-0.501c-0.272-0.645-0.41-1.323-0.41-2.015v-13.151c0-0.8 0.651-1.451 1.451-1.451s1.451 0.651 1.451 1.451v7.661c0 0.133 0.069 0.256 0.182 0.325s0.254 0.075 0.373 0.016c1.083-0.547 2.325-0.835 3.59-0.835 0.211 0 0.428 0.009 0.646 0.025 0.106 0.008 0.211-0.028 0.289-0.101s0.123-0.174 0.123-0.28v-6.811c0-0.8 0.651-1.451 1.451-1.451s1.451 0.651 1.451 1.451v7.985c0 0.132 0.069 0.255 0.181 0.325 1.819 1.125 2.906 2.935 2.906 4.841-0 3.3-3.161 5.985-7.046 5.985z"></path>
<path fill="#000000" d="M17.717 15.559c0 0.355-0.288 0.643-0.643 0.643s-0.643-0.288-0.643-0.643c0-0.355 0.288-0.643 0.643-0.643s0.643 0.288 0.643 0.643z"></path>
<path fill="#000000" d="M25.473 15.559c0 0.355-0.288 0.643-0.643 0.643s-0.643-0.288-0.643-0.643c0-0.355 0.288-0.643 0.643-0.643s0.643 0.288 0.643 0.643z"></path>
<path fill="#000000" d="M23.96 17.501c-0.211 0-0.382 0.171-0.382 0.382 0 0.448-0.364 0.812-0.812 0.812-0.336 0-0.624-0.205-0.748-0.496 0.474-0.146 0.804-0.518 0.804-0.967 0-0.579-0.549-1.033-1.25-1.033s-1.25 0.454-1.25 1.033c0 0.449 0.33 0.821 0.804 0.967-0.123 0.291-0.412 0.496-0.748 0.496-0.448 0-0.812-0.364-0.812-0.812 0-0.211-0.171-0.382-0.382-0.382s-0.382 0.171-0.382 0.382c0 0.869 0.707 1.576 1.576 1.576 0.477 0 0.905-0.213 1.194-0.548 0.289 0.335 0.717 0.548 1.194 0.548 0.869 0 1.576-0.707 1.576-1.576 0-0.211-0.171-0.382-0.382-0.382zM21.573 16.963c0.297 0 0.486 0.159 0.486 0.269s-0.189 0.269-0.486 0.269-0.486-0.159-0.486-0.269 0.189-0.269 0.486-0.269z"></path>
</svg>
<svg id="icon-animal2" width="32" height="32" viewBox="0 0 32 32" x="0" y="32">
<path fill="#000000" d="M19.731 11.521c0 0.358-0.291 0.649-0.649 0.649s-0.649-0.291-0.649-0.649c0-0.358 0.291-0.649 0.649-0.649s0.649 0.291 0.649 0.649z"></path>
<path fill="#000000" d="M13.89 11.521c0 0.358-0.291 0.649-0.649 0.649s-0.649-0.291-0.649-0.649c0-0.358 0.291-0.649 0.649-0.649s0.649 0.291 0.649 0.649z"></path>
<path fill="#000000" d="M31.942 22.399c-1.641-2.563-4.077-4.044-5.831-4.835-1.464-0.66-2.687-0.96-3.198-1.067-0.523-1.459-0.716-3.043-0.543-4.593 0.030-0.264 0.043-0.538 0.039-0.813-0.020-1.349-0.474-2.655-1.287-3.733 0.054-0.038 0.099-0.088 0.126-0.15 0.042-0.094 0.042-0.201 0.001-0.295l-0.718-1.657 2.967-0.125v0.643c-0.514 0.157-0.888 0.636-0.888 1.2 0 0.692 0.563 1.255 1.255 1.255s1.255-0.563 1.255-1.255c0-0.565-0.375-1.043-0.889-1.2v-1.025h-0.001c0-0.125-0.063-0.244-0.173-0.312l-5.396-3.331c-0.072-0.045-0.16-0.065-0.248-0.051l-4.887 0.755c-0.117 0.018-0.219 0.092-0.272 0.198l-2.443 4.887c-0.047 0.095-0.051 0.206-0.011 0.304 0.026 0.064 0.069 0.117 0.124 0.157-0.83 1.101-1.282 2.444-1.282 3.835 0 0.218 0.011 0.438 0.033 0.653 0.162 1.596-0.027 3.174-0.547 4.645-0.483 0.099-1.735 0.397-3.24 1.076-1.754 0.791-4.19 2.273-5.831 4.835-0.075 0.117-0.077 0.267-0.006 0.386 0.067 0.111 0.186 0.178 0.314 0.178 0.010 0 0.020-0 0.029-0.001 3.138-0.251 5.871-0.832 6.952-1.084-0.004 0.101-0.008 0.202-0.009 0.303-0.022 2.38 0.936 4.649 2.645 6.307-0.671 0.455-1.113 1.225-1.113 2.095 0 0.202 0.164 0.366 0.367 0.366h13.577c0.202 0 0.366-0.164 0.366-0.366 0-0.867-0.438-1.633-1.104-2.089 1.681-1.632 2.636-3.874 2.636-6.231 0-0.125-0.004-0.249-0.009-0.374 1.116 0.258 3.812 0.825 6.9 1.072 0.010 0.001 0.020 0.001 0.029 0.001 0.128 0 0.248-0.067 0.314-0.178 0.072-0.119 0.070-0.269-0.005-0.386zM24.387 6.973c0 0.288-0.234 0.522-0.522 0.522s-0.522-0.234-0.522-0.522 0.234-0.522 0.522-0.522 0.522 0.234 0.522 0.522zM22.656 4.432l-2.436 0.103-0.95-2.194 3.386 2.091zM13.826 2.504l4.42-0.683 1.519 3.507c-1.221 0.315-2.477 0.475-3.738 0.475-1.224 0-2.442-0.15-3.627-0.447l1.426-2.852zM12.065 6.027c1.293 0.338 2.624 0.509 3.962 0.509 1.362 0 2.716-0.178 4.033-0.527l0.357 0.824c-2.839 0.87-5.917 0.872-8.757 0.007l0.406-0.812zM11.661 7.604c1.419 0.41 2.893 0.615 4.366 0.615 1.471 0 2.942-0.205 4.359-0.613 0.37 0.45 0.665 0.95 0.88 1.481-0.596-0.534-1.382-0.859-2.243-0.859-1.307 0-2.442 0.749-2.999 1.841-0.557-1.091-1.692-1.841-2.999-1.841-0.861 0-1.648 0.326-2.243 0.86 0.214-0.533 0.509-1.034 0.879-1.483zM10.393 11.592c0-1.451 1.181-2.632 2.632-2.632 1.445 0 2.622 1.171 2.632 2.614-0.027 0.61-0.53 1.098-1.146 1.098-0.202 0-0.367 0.164-0.367 0.367s0.164 0.367 0.367 0.367c0.052 0 0.104-0.002 0.155-0.004 0.021-0.001 0.042-0.002 0.062-0.003 0.007-0.001 0.015-0.001 0.022-0.002 0.154-0.011 0.299-0.029 0.432-0.046 0.152-0.020 0.378-0.049 0.458-0.030 0.007 0.021 0.018 0.069 0.018 0.164 0 0.202 0.164 0.367 0.366 0.367s0.366-0.164 0.366-0.367c0-0.095 0.011-0.143 0.018-0.164 0.081-0.020 0.306 0.010 0.458 0.030 0.132 0.017 0.278 0.036 0.432 0.046 0.007 0.001 0.015 0.001 0.022 0.002 0.021 0.001 0.041 0.003 0.062 0.003 0.051 0.003 0.103 0.004 0.155 0.004 0.202 0 0.366-0.164 0.366-0.367s-0.164-0.367-0.366-0.367c-0.633 0-1.148-0.515-1.148-1.148 0-0.001-0-0.003-0-0.004 0.039-1.417 1.204-2.559 2.63-2.559 1.451 0 2.632 1.181 2.632 2.632h0.007c-0.005 0.077-0.012 0.153-0.021 0.229-0.073 0.655-0.084 1.317-0.038 1.973-3.149 2.897-8.024 2.893-11.168-0.013 0.048-0.664 0.039-1.337-0.030-2.013-0.006-0.058-0.009-0.117-0.013-0.176h0.001zM1.114 22.162c1.515-2.021 3.551-3.239 5.057-3.921 1.073-0.486 2.024-0.771 2.624-0.923-0.115 0.254-0.24 0.503-0.376 0.748-0.52 0.94-0.86 1.976-1.003 3.043-0.767 0.185-3.279 0.754-6.303 1.053zM9.642 30.218c0.17-0.816 0.894-1.431 1.76-1.431h1.082c0.865 0 1.59 0.615 1.76 1.431h-4.601zM22.411 30.218h-4.601c0.17-0.816 0.894-1.431 1.76-1.431h1.082c0.865 0 1.59 0.615 1.76 1.431zM21.366 28.157c-0.227-0.067-0.467-0.104-0.715-0.104h-1.082c-1.246 0-2.284 0.906-2.492 2.094-0.383 0.051-0.774 0.074-1.165 0.069-0.314-0.004-0.628-0.028-0.938-0.069-0.208-1.188-1.245-2.093-2.492-2.093h-1.082c-0.244 0-0.479 0.035-0.703 0.1-1.692-1.533-2.647-3.695-2.626-5.966 0.012-1.317 0.354-2.62 0.988-3.767 0.648-1.172 1.077-2.44 1.276-3.753 1.648 1.353 3.669 2.030 5.69 2.030 2.015 0 4.030-0.673 5.675-2.018 0.197 1.297 0.624 2.556 1.263 3.695 0.664 1.182 1.015 2.527 1.015 3.891 0 2.25-0.95 4.386-2.614 5.893zM24.637 21.122c-0.145-1.091-0.494-2.148-1.033-3.107-0.125-0.223-0.242-0.452-0.35-0.684 0.602 0.155 1.53 0.437 2.575 0.91 1.506 0.682 3.542 1.9 5.057 3.921-2.954-0.292-5.423-0.843-6.249-1.040z"></path>
</svg>
<svg id="icon-animal3" width="32" height="32" viewBox="0 0 32 32" x="0" y="64">
<path fill="#000000" d="M28.664 9.069c0.218-0.497 0.33-1.035 0.33-1.586 0-2.193-1.784-3.977-3.977-3.977-0.534 0-1.054 0.106-1.537 0.31-0.084-2.119-1.834-3.817-3.973-3.817-1.516 0-2.836 0.853-3.507 2.104-0.671-1.251-1.991-2.104-3.507-2.104-2.139 0-3.889 1.698-3.973 3.817-0.483-0.205-1.003-0.31-1.537-0.31-2.193 0-3.977 1.784-3.977 3.977 0 0.551 0.113 1.088 0.33 1.586-1.889 0.307-3.336 1.95-3.336 3.925 0 1.912 1.389 3.543 3.378 3.966 0.008 0.002 0.016 0.003 0.024 0.004l4.137 0.662c0.183 2.485 1.452 4.771 3.483 6.245v1.146c0 0.926 0.641 1.704 1.503 1.916v2.399l-1.866 1.866c-0.183 0.183-0.183 0.481 0 0.664 0.092 0.092 0.212 0.138 0.332 0.138s0.24-0.046 0.332-0.138l1.202-1.202v0.87c0 0.259 0.21 0.47 0.47 0.47s0.47-0.21 0.47-0.47v-0.87l1.202 1.202c0.092 0.092 0.212 0.138 0.332 0.138s0.24-0.046 0.332-0.138c0.183-0.183 0.183-0.481 0-0.664l-1.866-1.866v-2.399c0.735-0.18 1.309-0.772 1.462-1.517 0.363 0.047 0.722 0.071 1.074 0.071s0.711-0.024 1.074-0.071c0.153 0.745 0.728 1.337 1.462 1.517v2.399l-1.866 1.866c-0.183 0.183-0.183 0.481 0 0.664 0.092 0.092 0.212 0.138 0.332 0.138s0.24-0.046 0.332-0.138l1.202-1.202v0.87c0 0.259 0.21 0.47 0.47 0.47s0.47-0.21 0.47-0.47v-0.87l1.202 1.202c0.092 0.092 0.212 0.138 0.332 0.138s0.24-0.046 0.332-0.138c0.183-0.183 0.183-0.481 0-0.664l-1.866-1.866v-2.399c0.862-0.211 1.503-0.99 1.503-1.916v-1.145c2.036-1.477 3.306-3.771 3.484-6.264 0.018 0.002 0.035 0.003 0.053 0.003 0.025 0 0.050-0.002 0.075-0.006l4.008-0.641c0.003-0 0.006-0.001 0.009-0.002 1.997-0.361 3.392-1.993 3.392-3.969 0-1.975-1.447-3.618-3.336-3.925zM19.507 0.939c1.675 0 3.037 1.362 3.037 3.037 0 0.153-0.013 0.308-0.037 0.463l-2.108 4.217c-0.362-1.923-1.957-3.416-3.929-3.622v-1.058c0-1.675 1.362-3.037 3.037-3.037zM16.854 12.921l0.594-1.782c0.048-0.143 0.024-0.301-0.065-0.423s-0.23-0.195-0.381-0.195h-2.004c-0.151 0-0.293 0.073-0.381 0.195s-0.112 0.28-0.065 0.423l0.594 1.782c-1.54-0.383-2.685-1.777-2.685-3.433 0-1.951 1.587-3.538 3.538-3.538s3.538 1.587 3.538 3.538c0 1.657-1.145 3.051-2.685 3.433zM15.65 11.46h0.701l-0.35 1.051-0.35-1.051zM12.493 0.939c1.675 0 3.037 1.362 3.037 3.037v1.058c-1.973 0.207-3.567 1.699-3.929 3.622l-2.108-4.217c-0.024-0.155-0.037-0.31-0.037-0.463 0-1.675 1.362-3.037 3.037-3.037zM0.939 12.994c0-1.624 1.281-2.954 2.886-3.033l3.376 2.532c0.084 0.063 0.183 0.094 0.281 0.094 0.143 0 0.284-0.065 0.376-0.188 0.156-0.207 0.114-0.502-0.094-0.658l-3.213-2.41c-0.014-0.038-0.032-0.074-0.056-0.108-0.361-0.514-0.551-1.116-0.551-1.741-0-1.675 1.362-3.037 3.037-3.037 0.625 0 1.225 0.191 1.739 0.553l2.497 4.994c-2.209 1.511-3.592 3.998-3.697 6.68l-3.96-0.634c-1.545-0.334-2.623-1.585-2.623-3.045zM11.716 10.79c0.363 1.191 1.21 2.173 2.311 2.715-0.002 1.875-0.616 3.601-1.824 5.131-0.863 1.092-1.88 1.876-2.639 2.303-0.716-1.169-1.11-2.527-1.11-3.938 0-2.483 1.237-4.811 3.262-6.212zM22.436 20.94c-0.284-0.16-0.685-0.415-1.152-0.796-0.201-0.164-0.497-0.134-0.661 0.067s-0.134 0.497 0.067 0.661c0.397 0.323 0.812 0.612 1.204 0.84-0.465 0.581-1.018 1.098-1.65 1.529-0.128 0.087-0.205 0.233-0.205 0.388v1.389c0 0.57-0.464 1.033-1.033 1.033s-1.033-0.464-1.033-1.033v-0.146c0-0.14-0.062-0.273-0.17-0.362s-0.25-0.126-0.387-0.1c-0.48 0.091-0.956 0.137-1.415 0.137s-0.935-0.046-1.415-0.137c-0.138-0.026-0.279 0.010-0.387 0.1s-0.17 0.222-0.17 0.362v0.146c0 0.57-0.464 1.033-1.033 1.033s-1.033-0.464-1.033-1.033v-1.389c0-0.155-0.077-0.301-0.205-0.388-0.631-0.43-1.185-0.947-1.649-1.528 1.834-1.061 4.699-3.753 4.853-7.87 0.171 0.041 0.346 0.072 0.525 0.093l0.070 0.21c0.064 0.192 0.243 0.321 0.446 0.321s0.382-0.129 0.446-0.321l0.070-0.21c0.178-0.021 0.353-0.052 0.524-0.093 0.029 0.785 0.159 1.556 0.385 2.295 0.062 0.202 0.248 0.332 0.449 0.332 0.046 0 0.092-0.007 0.138-0.021 0.248-0.076 0.387-0.339 0.311-0.587-0.232-0.756-0.349-1.548-0.35-2.356 1.101-0.543 1.948-1.524 2.311-2.715 2.026 1.401 3.262 3.729 3.262 6.212 0 1.411-0.394 2.769-1.11 3.938zM28.445 16.038l-3.967 0.635c-0.105-2.682-1.488-5.169-3.697-6.68l2.497-4.994c0.514-0.361 1.114-0.553 1.739-0.553 1.675 0 3.037 1.362 3.037 3.037 0 0.625-0.191 1.227-0.551 1.741-0.024 0.034-0.042 0.070-0.056 0.108l-3.213 2.41c-0.207 0.156-0.25 0.45-0.094 0.658 0.092 0.123 0.233 0.188 0.376 0.188 0.098 0 0.197-0.031 0.281-0.094l3.376-2.532c1.605 0.079 2.886 1.409 2.886 3.033 0 1.513-1.075 2.764-2.615 3.044z"></path>
<path fill="#000000" d="M14.497 9.018c-0.123 0-0.245 0.050-0.332 0.138s-0.138 0.209-0.138 0.332 0.050 0.245 0.138 0.332c0.087 0.088 0.209 0.138 0.332 0.138s0.245-0.050 0.332-0.138c0.088-0.087 0.138-0.209 0.138-0.332s-0.050-0.245-0.138-0.332c-0.087-0.088-0.209-0.138-0.332-0.138z"></path>
<path fill="#000000" d="M17.503 9.018c-0.123 0-0.245 0.050-0.332 0.138s-0.138 0.209-0.138 0.332 0.050 0.245 0.138 0.332c0.087 0.088 0.209 0.138 0.332 0.138s0.245-0.050 0.332-0.138c0.088-0.087 0.138-0.209 0.138-0.332s-0.050-0.245-0.138-0.332c-0.087-0.088-0.209-0.138-0.332-0.138z"></path>
<path fill="#000000" d="M19.184 17.76c-0.136-0.221-0.425-0.29-0.646-0.155s-0.29 0.425-0.155 0.646c0.22 0.359 0.469 0.712 0.74 1.048 0.093 0.115 0.229 0.175 0.366 0.175 0.103 0 0.208-0.034 0.294-0.104 0.202-0.163 0.234-0.458 0.071-0.66-0.245-0.304-0.471-0.624-0.671-0.949z"></path>
</svg>
</svg>
